<svg width="1139" height="1101" viewBox="0 0 1139 1101" fill="none" xmlns="http://www.w3.org/2000/svg">
<rect width="1139" height="1101" rx="50" fill="white"/>
<path d="M777.437 272.232C777.455 287.931 778.118 302.01 777.293 316C776.492 329.584 781.526 334.87 795.363 334.597C828.12 333.952 860.914 334.974 893.661 334.123C909.538 333.71 915.567 338.983 914.958 355.314C913.87 384.525 914.113 413.815 914.805 443.048C915.116 456.14 909.827 460.872 897.385 460.781C862.278 460.524 827.166 460.531 792.058 460.774C778.307 460.869 772.046 455.655 772.495 440.972C773.319 414.088 772.057 387.139 772.914 360.257C773.405 344.856 769.197 338.661 752.301 338.755C630.005 339.438 507.702 339.348 385.403 338.908C370.803 338.855 366.499 343.531 366.422 358.041C366.239 392.421 380.411 416.509 412.515 429.247C468.501 451.463 526.461 467.963 583.283 487.769C652.243 511.806 722.264 532.668 789.884 560.711C866.191 592.357 906.815 646.911 912.189 730.32C915.029 774.394 915.366 769.284 874.871 769.439C850.896 769.531 826.913 768.941 802.942 768.33C780.383 767.755 777.742 770.312 777.379 792.478C777.053 812.31 779.325 832.267 774.772 851.933C769.538 874.542 755.953 886.737 732.994 886.796C624.153 887.075 515.311 887.064 406.471 886.786C381.87 886.723 369.37 874.737 364.421 850.666C360.241 830.33 361.887 809.891 361.552 789.474C361.237 770.221 358.375 766.905 338.874 768.273C307.875 770.448 276.873 768.912 245.883 769.505C229.671 769.816 223.274 763.805 224.065 746.711C225.415 717.524 224.793 688.221 224.243 658.981C224.021 647.158 227.78 642.088 240.245 642.267C276.518 642.788 312.808 642.8 349.08 642.243C362.049 642.043 366.795 647.047 366.572 659.764C366.057 689.006 366.916 718.277 366.106 747.505C365.72 761.442 370.882 765.591 384.486 765.546C507.371 765.145 630.257 765.12 753.142 765.541C767.567 765.59 772.634 761.145 772.405 746.428C771.822 708.975 758.875 687.997 720.511 674.085C667.797 654.97 614.211 638.274 561.204 619.949C488.882 594.946 415.078 574.138 344.85 543.191C287.692 518.005 245.15 480.007 232.98 415.76C229.079 395.171 227.587 374.132 224.721 353.337C222.867 339.884 227.899 333.968 241.933 334.191C274.109 334.703 306.299 334.463 338.482 334.342C361.313 334.257 361.169 334.119 361.496 310.592C361.795 289.009 359.998 267.35 364.684 245.927C368.994 226.228 382.345 214.198 402.829 214.161C513.426 213.962 624.023 213.933 734.619 214.156C757.767 214.203 769.789 224.981 774.287 248.086C775.731 255.504 776.404 263.073 777.437 272.232Z" fill="black"/>
</svg>
