<svg width="1139" height="1101" viewBox="0 0 1139 1101" fill="none" xmlns="http://www.w3.org/2000/svg">
<rect width="1139" height="1101" rx="50" fill="white"/>
<path d="M481.361 781.199C504.709 726.348 527.886 671.973 550.886 617.522C552.49 613.725 556.851 608.166 552.924 605.651C548.457 602.788 545.537 609.304 542.527 612.37C513.319 642.128 484.168 671.942 455.088 701.824C433.548 723.96 412.142 746.226 390.657 768.415C389.126 769.996 387.023 771.161 385.887 772.961C379.767 782.666 372.328 780.653 363.384 776.975C318.919 758.689 274.259 740.876 229.612 723.037C225.575 721.424 224.618 719.612 226.529 715.648C245.02 677.285 260.634 637.646 278.079 598.815C280.401 593.646 283.617 591.437 288.969 591.068C314.482 589.309 339.995 587.523 365.493 585.56C397.138 583.123 428.766 580.474 460.406 577.976C477.991 576.587 495.586 575.324 513.176 573.992C518.565 573.583 523.93 573.034 529.182 571.226C528.131 567.22 525.213 567.142 522.785 566.537C456.947 550.115 391.08 533.807 325.265 517.294C301.757 511.396 278.421 504.813 254.896 498.987C248.487 497.399 246.083 493.908 245.08 487.803C239.402 453.264 233.469 418.768 227.591 384.262C226.629 378.611 225.862 372.892 224.362 367.379C222.957 362.22 224.847 360.229 229.657 359.126C256.075 353.07 282.465 346.888 308.838 340.638C328.353 336.013 347.857 331.333 367.3 326.416C371.942 325.243 375.128 326.099 378.28 329.773C402.132 357.57 425.215 386.001 448.445 414.314C480.211 453.03 512.244 491.526 544.235 530.056C546.117 532.324 547.74 535.178 551.203 535.843C553.387 533.215 551.879 530.764 550.96 528.43C537.299 493.755 523.561 459.11 509.904 424.433C496.652 390.786 483.51 357.095 470.245 323.454C464.339 308.477 458.382 293.518 452.15 278.676C450.538 274.838 451.353 272.694 454.509 270.347C491.327 242.965 528.141 215.575 564.757 187.924C569.043 184.687 571.707 185.974 575.136 188.552C608.823 213.876 642.548 239.151 676.276 264.422C688.587 273.646 688.714 273.669 683.079 287.884C651.224 368.244 619.311 448.581 587.415 528.924C586.53 531.154 585.236 533.332 586.854 536.126C590.716 536.363 592.367 533.111 594.319 530.778C616.405 504.384 638.48 477.981 660.382 451.435C693.378 411.441 726.31 371.393 759.051 331.19C763.101 326.217 767.036 324.812 773.199 326.436C818.403 338.348 863.984 348.712 909.564 359.063C914.08 360.089 915.535 361.743 914.673 366.688C908.472 402.267 902.6 437.902 896.655 473.525C895.821 478.519 894.931 483.521 894.467 488.556C893.961 494.058 891.53 497.242 885.944 498.634C864.982 503.855 844.101 509.401 823.179 514.782C789.671 523.399 756.195 532.143 722.63 540.534C687.562 549.301 652.406 557.715 617.287 566.281C614.126 567.052 610.759 567.305 607.885 570.153C611.989 573.79 617.063 573.102 621.559 573.486C669.642 577.587 717.732 581.605 765.844 585.342C793.536 587.493 821.26 589.26 848.992 590.802C855.004 591.136 858.396 592.966 860.981 598.705C878.544 637.711 894.315 677.509 912.888 716.065C913.449 717.23 913.773 718.509 914.101 719.434C913.283 721.812 911.37 722.147 909.818 722.772C862.155 741.969 814.455 761.073 766.833 780.369C763.065 781.896 760.95 780.305 758.726 778.083C745.772 765.139 732.738 752.273 719.955 739.162C693.771 712.308 667.756 685.29 641.62 658.389C626.092 642.407 610.468 626.519 594.881 610.593C593.801 609.49 592.752 608.335 591.548 607.381C590.065 606.206 588.642 604.123 586.418 605.513C583.743 607.185 585.417 609.524 586.161 611.423C596.538 637.913 607.563 664.126 618.958 690.199C639.885 738.084 660.159 786.251 679.73 834.711C681.206 838.364 680.461 840.153 677.282 842.199C642.58 864.538 609.353 889.019 575.555 912.669C570.929 915.906 567.743 915.679 563.311 912.564C529.919 889.098 496.44 865.755 462.8 842.648C458.312 839.566 458.04 836.921 460.011 832.341C467.246 815.528 474.131 798.565 481.361 781.199Z" fill="black"/>
</svg>
