<svg width="486" height="470" viewBox="0 0 486 470" fill="none" xmlns="http://www.w3.org/2000/svg">
<rect width="486" height="470" rx="20" fill="white"/>
<path d="M143.122 167.152C143.144 151.449 143.105 136.269 143.213 121.09C143.287 110.674 148.957 107.681 158.327 112.459C182.368 124.719 206.506 136.79 230.66 148.824C237.283 152.123 241.414 149.337 241.441 141.749C241.486 129.012 241.448 116.275 241.389 103.538C241.372 99.9212 241.928 96.5613 244.755 94.0035C247.994 91.0741 251.365 91.7487 254.905 93.5347C278.224 105.298 301.571 117.006 324.907 128.736C328.953 130.769 332.948 132.908 337.044 134.833C340.965 136.676 342.821 139.712 342.824 143.951C342.839 168.726 342.953 193.502 342.77 218.276C342.713 226.052 337.163 229.083 330.214 225.595C305.475 213.18 280.747 200.741 256.025 188.29C248.236 184.367 244.662 186.578 244.56 195.395C244.484 202.019 244.337 208.642 244.214 215.265C244.143 219.096 245.575 221.627 249.272 223.479C277.605 237.669 305.772 252.193 334.142 266.31C340.572 269.509 343.149 273.584 342.993 280.998C342.515 303.844 342.836 326.708 342.869 349.565C342.883 359.39 337.936 362.738 329.252 358.388C304.973 346.224 280.752 333.944 256.552 321.623C248.337 317.439 244.692 319.404 244.634 328.437C244.55 341.523 244.511 354.608 244.514 367.694C244.517 376.591 238.669 380.451 230.666 376.38C203.352 362.488 176.124 348.424 148.855 334.443C144.885 332.407 143.057 329.271 143.072 324.758C143.151 301.029 143.05 277.299 143.173 253.571C143.228 242.928 148.609 239.756 157.97 244.477C182.218 256.708 206.453 268.964 230.752 281.092C238.341 284.88 241.305 282.885 241.364 274.322C241.411 267.518 241.296 260.712 241.409 253.909C241.477 249.782 239.836 247.114 236.067 245.234C207.711 231.087 179.48 216.689 151.055 202.683C145.255 199.825 142.648 196.174 143.038 189.654C143.475 182.352 143.129 175.004 143.122 167.152Z" fill="black"/>
</svg>
